<svg width="93" height="81" viewBox="0 0 93 81" fill="none" xmlns="http://www.w3.org/2000/svg">
<path d="M58.6727 34.6445H55.4047C55.202 36.1786 53.8847 37.3547 52.314 37.3547V40.6274C55.6833 40.6274 58.4447 37.9939 58.6727 34.6445Z" fill="#242424"/>
<path d="M58.6728 33.775C58.4702 30.4256 55.6835 27.7666 52.3141 27.7666V31.0393C53.9101 31.0393 55.2275 32.2409 55.4301 33.775H58.6728Z" fill="#242424"/>
<path d="M58.6728 43.4137C58.4702 40.0643 55.6835 37.4053 52.3141 37.4053V40.6779C53.9101 40.6779 55.2275 41.8796 55.4301 43.4137H58.6728Z" fill="#242424"/>
<path d="M58.6727 44.2832H55.4047C55.202 45.8173 53.8847 46.9934 52.314 46.9934V50.266C55.6833 50.266 58.4447 47.6326 58.6727 44.2832Z" fill="#242424"/>
<path d="M35.3404 0C32.0217 0.204541 29.387 3.01698 29.387 6.41748H32.6297C32.6297 4.80672 33.8204 3.4772 35.3404 3.27266V0Z" fill="#242424"/>
<path d="M51.4527 27.8174C48.134 28.0475 45.4993 30.8344 45.4993 34.2349H48.742C48.742 32.6241 49.9327 31.3201 51.4527 31.09V27.8174Z" fill="#242424"/>
<path d="M36.1765 0V3.29823C37.6965 3.50277 38.8619 4.83229 38.8619 6.41748H42.1046C42.1299 3.01698 39.4952 0.230109 36.1765 0Z" fill="#242424"/>
<path d="M52.238 8.87207V12.1703C53.7581 12.3748 54.9234 13.7044 54.9234 15.2896H58.1661C58.1915 11.8635 55.5568 9.07661 52.238 8.87207Z" fill="#242424"/>
<path d="M36.1511 22.6787C39.4698 22.4742 42.1045 19.6617 42.1045 16.2612H38.8618C38.8618 17.872 37.6711 19.2015 36.1511 19.4061V22.6787Z" fill="#242424"/>
<path d="M35.3152 22.6531V19.3805C33.7952 19.1759 32.6299 17.8464 32.6299 16.2612H29.3871C29.3618 19.6617 31.9965 22.4486 35.3152 22.6531Z" fill="#242424"/>
<path d="M22.4204 0.459961H19.203V22.1413H22.4204V0.459961Z" fill="#242424"/>
<path d="M32.6299 9.63916H23.2311V12.8863H32.6299V9.63916Z" fill="#242424"/>
<path d="M58.1914 0.459961H45.4486V3.70705H58.1914V0.459961Z" fill="#242424"/>
<path d="M42.1045 9.63916H38.8618V12.8863H42.1045V9.63916Z" fill="#242424"/>
<path d="M52.998 8.87207H49.7552V12.1192H52.998V8.87207Z" fill="#242424"/>
<path d="M35.3152 27.6899C31.9965 27.8945 29.3618 30.7069 29.3618 34.1074H32.6045C32.6045 32.4967 33.7952 31.1671 35.3152 30.9626V27.6899Z" fill="#242424"/>
<path d="M36.1765 27.6899V30.9882C37.6965 31.1927 38.8619 32.5222 38.8619 34.1074H42.1046C42.1046 30.7069 39.4699 27.9201 36.1765 27.6899Z" fill="#242424"/>
<path d="M36.1511 50.4961C39.4698 50.2916 42.1045 47.4791 42.1045 44.0786H38.8618C38.8618 45.6894 37.6711 47.0189 36.1511 47.2234V50.4961Z" fill="#242424"/>
<path d="M35.2899 50.4961V47.1979C33.7699 46.9933 32.6045 45.6638 32.6045 44.0786H29.3618C29.3618 47.4791 31.9712 50.266 35.2899 50.4961Z" fill="#242424"/>
<path d="M42.1045 35.0278H38.8618V43.1328H42.1045V35.0278Z" fill="#242424"/>
<path d="M48.7672 33.3403H45.5245V36.5874H48.7672V33.3403Z" fill="#242424"/>
<path d="M48.7672 41.522H45.5245V44.7691H48.7672V41.522Z" fill="#242424"/>
<path d="M54.0622 37.3286H45.3981V40.5757H54.0622V37.3286Z" fill="#242424"/>
<path d="M32.6045 35.0278H29.3618V43.1328H32.6045V35.0278Z" fill="#242424"/>
<path d="M48.6913 4.67871H45.4486V12.0678H48.6913V4.67871Z" fill="#242424"/>
<path d="M51.4526 50.3687V47.0704C49.9326 46.8659 48.7672 45.5364 48.7672 43.9512H45.5245C45.5245 47.3517 48.1339 50.1386 51.4526 50.3687Z" fill="#242424"/>
<path d="M73.2904 34.644H70.0223C69.8197 36.1781 68.5023 37.3542 66.9316 37.3542V40.6269C70.301 40.6269 73.0624 37.9934 73.2904 34.644Z" fill="#242424"/>
<path d="M73.2904 43.4137C73.0877 40.0643 70.301 37.4053 66.9316 37.4053V40.6779C68.5277 40.6779 69.845 41.8796 70.0477 43.4137H73.2904Z" fill="#242424"/>
<path d="M65.2088 28.1499H61.9661V36.5872H65.2088V28.1499Z" fill="#242424"/>
<path d="M65.2088 41.522H61.9661V49.857H65.2088V41.522Z" fill="#242424"/>
<path d="M68.4264 37.3286H61.8396V40.5757H68.4264V37.3286Z" fill="#242424"/>
<path d="M81.6252 33.3403H78.3824V36.5874H81.6252V33.3403Z" fill="#242424"/>
<path d="M91.1252 33.3403H87.8824V36.5874H91.1252V33.3403Z" fill="#242424"/>
<path d="M91.1252 41.394H87.8824V44.6411H91.1252V41.394Z" fill="#242424"/>
<path d="M84.3359 27.6899C81.0171 27.9201 78.3824 30.7069 78.3824 34.1074H81.6252C81.6252 32.4967 82.8158 31.1927 84.3359 30.9626V27.6899Z" fill="#242424"/>
<path d="M85.1971 27.6899V30.9882C86.7172 31.1927 87.8825 32.5222 87.8825 34.1074H91.1252C91.1252 30.7069 88.5159 27.9201 85.1971 27.6899Z" fill="#242424"/>
<path d="M76.1023 27.6387C72.7836 27.8432 70.1489 30.6557 70.1489 34.0561H73.3916C73.3916 32.4454 74.5823 31.1414 76.1023 30.9113V27.6387Z" fill="#242424"/>
<path d="M76.1023 50.4961C72.7836 50.2916 70.1489 47.4791 70.1489 44.0786H73.3916C73.3916 45.6894 74.5823 47.0189 76.1023 47.2234V50.4961Z" fill="#242424"/>
<path d="M91.1251 43.8232H87.9077V49.8316H91.1251V43.8232Z" fill="#242424"/>
<path d="M81.6252 41.394H78.3824V44.6411H81.6252V41.394Z" fill="#242424"/>
<path d="M81.6253 43.8232H78.408V49.8316H81.6253V43.8232Z" fill="#242424"/>
<path d="M91.1253 37.3286H78.3824V40.5757H91.1253V37.3286Z" fill="#242424"/>
<path d="M6.00419 5.625H2.76147V8.87209H6.00419V5.625Z" fill="#242424"/>
<path d="M15.5044 5.625H12.2617V8.87209H15.5044V5.625Z" fill="#242424"/>
<path d="M32.6045 5.625H29.3618V8.87209H32.6045V5.625Z" fill="#242424"/>
<path d="M42.1298 5.625H38.8871V8.87209H42.1298V5.625Z" fill="#242424"/>
<path d="M32.6045 13.7041H29.3618V16.9512H32.6045V13.7041Z" fill="#242424"/>
<path d="M42.1298 13.7041H38.8871V16.9512H42.1298V13.7041Z" fill="#242424"/>
<path d="M52.238 22.6787C55.5568 22.4742 58.1915 19.6617 58.1915 16.2612H54.9487C54.9487 17.872 53.7581 19.2015 52.238 19.4061V22.6787Z" fill="#242424"/>
<path d="M51.3767 22.6531V19.3805C49.8567 19.1759 48.6913 17.8464 48.6913 16.2612H45.4486C45.4486 19.6617 48.058 22.4486 51.3767 22.6531Z" fill="#242424"/>
<path d="M48.6913 12.9375H45.4486V16.9516H48.6913V12.9375Z" fill="#242424"/>
<path d="M6.00419 9.9458H2.76147V16.9513H6.00419V9.9458Z" fill="#242424"/>
<path d="M8.71489 0C5.39618 0.230109 2.76147 3.01698 2.76147 6.41748H6.00419C6.00419 4.80672 7.19487 3.50277 8.71489 3.27266V0Z" fill="#242424"/>
<path d="M9.57605 0V3.29823C11.0961 3.50277 12.2614 4.83229 12.2614 6.41748H15.5041C15.5041 3.01698 12.8948 0.230109 9.57605 0Z" fill="#242424"/>
<path d="M0.0256348 22.5254C3.34435 22.3209 5.97905 19.534 5.97905 16.1079H2.73634C2.73634 17.7187 1.54566 19.0226 0.0256348 19.2527V22.5254Z" fill="#242424"/>
<path d="M15.5041 9.9458H12.2867V22.1416H15.5041V9.9458Z" fill="#242424"/>
<path d="M65.133 11.2244L61.9156 15.5454V0.460449H65.133V11.2244Z" fill="#242424"/>
<path d="M74.8105 22.1929H71.5931V11.7101L74.8105 7.59375V22.1929Z" fill="#242424"/>
<path d="M74.8105 0.0253906L61.9156 17.5392V22.7806L74.8105 5.3946V0.0253906Z" fill="#242424"/>
<path d="M15.3777 39.1951L12.1603 43.2348V38.9905L15.3777 34.644V39.1951Z" fill="#242424"/>
<path d="M25.6883 49.8827H22.4709V38.8886L25.6883 35.0278V49.8827Z" fill="#242424"/>
<path d="M25.6885 27.7153L12.1603 45.2292V50.4706L25.6885 33.0845V27.7153Z" fill="#242424"/>
<path d="M15.3775 27.7153L0 45.2292V50.4706L15.3775 33.0845V27.7153Z" fill="#242424"/>
<path d="M70.1492 55.0728C65.5131 55.3796 61.8397 59.2659 61.8397 64.0214H66.3744C66.3744 61.7971 68.0211 59.9306 70.1745 59.6494V55.0728H70.1492Z" fill="#242424"/>
<path d="M71.3398 55.0728V59.6494C73.4679 59.9562 75.0892 61.7971 75.0892 64.0214H79.6239C79.6239 59.2659 75.9506 55.3796 71.3398 55.0728Z" fill="#242424"/>
<path d="M83.4745 55.0728C78.8384 55.3796 75.165 59.2659 75.165 64.0214H79.6998C79.6998 61.7971 81.3465 59.9306 83.4998 59.6494V55.0728H83.4745Z" fill="#242424"/>
<path d="M84.6654 55.0728V59.6494C86.7934 59.9562 88.4148 61.7971 88.4148 64.0214H92.9495C92.9495 59.2659 89.3015 55.3796 84.6654 55.0728Z" fill="#242424"/>
<path d="M76.8371 75.5784C74.6078 74.479 66.9317 70.2859 66.577 65.249H61.8396C62.1943 72.7659 73.9998 78.9789 76.8118 80.3595V75.5784H76.8371Z" fill="#242424"/>
<path d="M88.2878 65.2485C87.9585 70.2854 80.2571 74.4785 78.0277 75.5779V80.359C80.8397 78.9784 92.6706 72.7654 92.9999 65.2485H88.2878Z" fill="#242424"/>
</svg>
